# xmcd CD database file
#
# Track frame offsets:
#	150
#	16105
#	39921
#	55568
#	75423
#	92189
#	107143
#	130688
#	157059
#	178600
#
# Disc length: 2662 seconds
#
# Revision: 0
# Processed by: cddbd v1.4PL0 Copyright (c) Steve Scherf et al.
# Submitted via: CDex 1.51
#
DISCID=6c0a640a
DTITLE=David Kellen - Christmas Piano jazz
DYEAR=2003
DGENRE=Jazz
TTITLE0=Skating
TTITLE1=I Saw Three Ships
TTITLE2=God Rest Ye, Merry Gentlemen
TTITLE3=March From Nutcracker
TTITLE4=Pat A Pan
TTITLE5=It's The Most Wonderful Time Of The Year
TTITLE6=Mary, Did You Know?
TTITLE7=But Who May Abide The Day Of His Coming?
TTITLE8=Have Yourself A Merry Little Christmas
TTITLE9=Go Tell It On The Mountain
EXTD=YEAR: 2003
EXTT0=
EXTT1=
EXTT2=
EXTT3=
EXTT4=
EXTT5=
EXTT6=
EXTT7=
EXTT8=
EXTT9=
PLAYORDER=
